<?xml version="1.0" encoding="utf-8"?>
<!-- Generator: Adobe Illustrator 23.0.1, SVG Export Plug-In . SVG Version: 6.00 Build 0)  -->
<svg version="1.1" id="Layer_1" xmlns="http://www.w3.org/2000/svg" xmlns:xlink="http://www.w3.org/1999/xlink" x="0px" y="0px"
	 viewBox="0 0 32 32" style="enable-background:new 0 0 32 32;" xml:space="preserve">
<style type="text/css">
	.st0{fill:#ED9121;stroke:#000000;stroke-width:0.25;stroke-miterlimit:10;}
</style>
<path class="st0" d="M29.8,7H6.3L5.9,3.1C5.9,2.5,5.4,2,4.7,2H2.2C2.2,2,1,3.4,1,4.1S2.2,5,2.2,5h1.3l1.4,15.8
	C5,21.9,5.7,23.1,6.7,24c-1.9,2.4-0.2,6,3,6c2.6,0,4.4-2.6,3.5-5h6.6c0,0,0.9,4.9,3.5,4.9c2,0,3.7-1.6,3.7-3.7c0-2-3.7-4.2-3.7-4.2
	H9.5c-0.9,0-1.8-0.6-2.1-1.4l19.9-1.2c0.5,0,1-0.4,1.1-0.9l2.5-10c0.2-0.7-0.2-1.3-0.9-1.5C30,7,29.9,7,29.8,7L29.8,7z M9.7,27.9
	c-0.7,0-1.2-0.6-1.2-1.3c0-0.6,0.6-1.2,1.2-1.2c0.7,0,1.2,0.6,1.2,1.3C10.9,27.3,10.3,27.8,9.7,27.9z M23.4,27.9
	c-0.7,0-1.2-0.6-1.2-1.3c0-0.6,0.6-1.2,1.2-1.2c0.7,0,1.2,0.6,1.2,1.3C24.5,27.3,24,27.8,23.4,27.9z M26,17.5L7.2,18.6L6.4,10h21.5
	L26,17.5L26,17.5z"/>
</svg>
